<svg xmlns="http://www.w3.org/2000/svg" xmlns:xlink="http://www.w3.org/1999/xlink" width="500" zoomAndPan="magnify" viewBox="0 0 375 374.999991" height="500" preserveAspectRatio="xMidYMid meet" version="1.0"><defs><g/><clipPath id="id1"><path d="M 0 156.339844 L 375 156.339844 L 375 196.839844 L 0 196.839844 Z M 0 156.339844 " clip-rule="nonzero"/></clipPath></defs><g fill="#ffffff" fill-opacity="1"><g transform="translate(196.725675, 266.054231)"><g><path d="M 16.058594 -178.433594 C 18.066406 -162.375 18.734375 -151.667969 18.734375 -128.695312 L 18.734375 -49.738281 C 18.734375 -26.765625 17.621094 -16.058594 15.613281 0 L 138.507812 0 L 147.652344 -20.296875 C 115.3125 -6.914062 103.046875 -5.351562 78.957031 -5.351562 L 64.90625 -5.351562 L 64.90625 -128.695312 C 64.90625 -151.667969 65.574219 -162.375 67.582031 -178.433594 Z M 16.058594 -178.433594 "/></g></g></g><g fill="#ffffff" fill-opacity="1"><g transform="translate(39.1626, 266.054231)"><g><path d="M 173.972656 -24.089844 L 105.054688 -115.757812 L 144.753906 -155.238281 C 153.453125 -163.9375 159.476562 -169.734375 171.296875 -178.433594 L 158.359375 -178.433594 C 152.339844 -169.734375 146.761719 -163.9375 137.171875 -154.792969 L 64.460938 -82.75 L 64.460938 -128.695312 C 64.460938 -151.667969 65.128906 -162.375 67.136719 -178.433594 L 15.613281 -178.433594 C 17.621094 -162.375 18.289062 -151.667969 18.289062 -128.695312 L 18.289062 -49.738281 C 18.289062 -26.765625 17.621094 -16.058594 15.613281 0 L 67.136719 0 C 65.128906 -16.058594 64.460938 -26.765625 64.460938 -49.738281 L 64.460938 -75.164062 L 71.597656 -82.300781 L 115.757812 -24.089844 C 124.457031 -12.265625 127.132812 -8.699219 130.925781 0 L 197.839844 0 C 186.6875 -8.476562 181.554688 -14.050781 173.972656 -24.089844 Z M 173.972656 -24.089844 "/></g></g></g><g clip-path="url(#id1)"><path fill="#822e33" d="M 0.0234375 156.339844 L 374.976562 156.339844 L 374.976562 196.839844 L 0.0234375 196.839844 L 0.0234375 156.339844 " fill-opacity="1" fill-rule="nonzero"/></g><g fill="#fbfaf9" fill-opacity="1"><g transform="translate(4.025446, 183.946834)"><g><path d="M 7.5 -7 L 4.609375 -4.078125 L 4.609375 0 L 2.359375 0 L 2.359375 -15.75 L 4.609375 -15.75 L 4.609375 -6.953125 L 13.15625 -15.75 L 15.734375 -15.75 L 9 -8.65625 L 16.15625 0 L 13.515625 0 Z M 7.5 -7 "/></g></g></g><g fill="#fbfaf9" fill-opacity="1"><g transform="translate(38.213907, 183.946834)"><g><path d="M 12.890625 0 L 9.5 -4.84375 C 9.070312 -4.8125 8.738281 -4.796875 8.5 -4.796875 L 4.609375 -4.796875 L 4.609375 0 L 2.359375 0 L 2.359375 -15.75 L 8.5 -15.75 C 10.539062 -15.75 12.144531 -15.257812 13.3125 -14.28125 C 14.488281 -13.3125 15.078125 -11.972656 15.078125 -10.265625 C 15.078125 -9.046875 14.773438 -8.007812 14.171875 -7.15625 C 13.578125 -6.300781 12.722656 -5.675781 11.609375 -5.28125 L 15.34375 0 Z M 8.4375 -6.703125 C 9.863281 -6.703125 10.953125 -7.007812 11.703125 -7.625 C 12.453125 -8.238281 12.828125 -9.117188 12.828125 -10.265625 C 12.828125 -11.398438 12.453125 -12.269531 11.703125 -12.875 C 10.953125 -13.488281 9.863281 -13.796875 8.4375 -13.796875 L 4.609375 -13.796875 L 4.609375 -6.703125 Z M 8.4375 -6.703125 "/></g></g></g><g fill="#fbfaf9" fill-opacity="1"><g transform="translate(72.582372, 183.946834)"><g><path d="M 8.390625 -5.4375 L 8.390625 0 L 6.171875 0 L 6.171875 -5.484375 L -0.09375 -15.75 L 2.3125 -15.75 L 7.359375 -7.453125 L 12.421875 -15.75 L 14.640625 -15.75 Z M 8.390625 -5.4375 "/></g></g></g><g fill="#fbfaf9" fill-opacity="1"><g transform="translate(105.150837, 183.946834)"><g><path d="M 8.5 -15.75 C 10.539062 -15.75 12.144531 -15.257812 13.3125 -14.28125 C 14.488281 -13.3125 15.078125 -11.972656 15.078125 -10.265625 C 15.078125 -8.546875 14.488281 -7.195312 13.3125 -6.21875 C 12.144531 -5.25 10.539062 -4.765625 8.5 -4.765625 L 4.609375 -4.765625 L 4.609375 0 L 2.359375 0 L 2.359375 -15.75 Z M 8.4375 -6.734375 C 9.863281 -6.734375 10.953125 -7.035156 11.703125 -7.640625 C 12.453125 -8.242188 12.828125 -9.117188 12.828125 -10.265625 C 12.828125 -11.398438 12.453125 -12.269531 11.703125 -12.875 C 10.953125 -13.488281 9.863281 -13.796875 8.4375 -13.796875 L 4.609375 -13.796875 L 4.609375 -6.734375 Z M 8.4375 -6.734375 "/></g></g></g><g fill="#fbfaf9" fill-opacity="1"><g transform="translate(139.406801, 183.946834)"><g><path d="M 5.484375 -13.796875 L 0.09375 -13.796875 L 0.09375 -15.75 L 13.125 -15.75 L 13.125 -13.796875 L 7.71875 -13.796875 L 7.71875 0 L 5.484375 0 Z M 5.484375 -13.796875 "/></g></g></g><g fill="#fbfaf9" fill-opacity="1"><g transform="translate(170.625275, 183.946834)"><g><path d="M 2.359375 -15.75 L 4.609375 -15.75 L 4.609375 0 L 2.359375 0 Z M 2.359375 -15.75 "/></g></g></g><g fill="#fbfaf9" fill-opacity="1"><g transform="translate(195.61125, 183.946834)"><g><path d="M 9.40625 0.1875 C 7.832031 0.1875 6.410156 -0.160156 5.140625 -0.859375 C 3.867188 -1.554688 2.875 -2.515625 2.15625 -3.734375 C 1.4375 -4.960938 1.078125 -6.34375 1.078125 -7.875 C 1.078125 -9.40625 1.4375 -10.78125 2.15625 -12 C 2.875 -13.226562 3.867188 -14.191406 5.140625 -14.890625 C 6.421875 -15.585938 7.847656 -15.9375 9.421875 -15.9375 C 10.648438 -15.9375 11.773438 -15.726562 12.796875 -15.3125 C 13.816406 -14.894531 14.6875 -14.285156 15.40625 -13.484375 L 13.953125 -12.0625 C 12.765625 -13.300781 11.285156 -13.921875 9.515625 -13.921875 C 8.347656 -13.921875 7.289062 -13.660156 6.34375 -13.140625 C 5.394531 -12.617188 4.65625 -11.894531 4.125 -10.96875 C 3.59375 -10.039062 3.328125 -9.007812 3.328125 -7.875 C 3.328125 -6.738281 3.59375 -5.707031 4.125 -4.78125 C 4.65625 -3.851562 5.394531 -3.128906 6.34375 -2.609375 C 7.289062 -2.085938 8.347656 -1.828125 9.515625 -1.828125 C 11.273438 -1.828125 12.753906 -2.457031 13.953125 -3.71875 L 15.40625 -2.296875 C 14.6875 -1.484375 13.8125 -0.863281 12.78125 -0.4375 C 11.757812 -0.0195312 10.632812 0.1875 9.40625 0.1875 Z M 9.40625 0.1875 "/></g></g></g><g fill="#fbfaf9" fill-opacity="1"><g transform="translate(229.889713, 183.946834)"><g/></g></g><g fill="#fbfaf9" fill-opacity="1"><g transform="translate(253.95318, 183.946834)"><g><path d="M 2.359375 -15.75 L 4.609375 -15.75 L 4.609375 -1.953125 L 13.140625 -1.953125 L 13.140625 0 L 2.359375 0 Z M 2.359375 -15.75 "/></g></g></g><g fill="#fbfaf9" fill-opacity="1"><g transform="translate(285.329147, 183.946834)"><g><path d="M 12.390625 -3.9375 L 4.03125 -3.9375 L 2.296875 0 L -0.015625 0 L 7.109375 -15.75 L 9.34375 -15.75 L 16.5 0 L 14.125 0 Z M 11.609375 -5.734375 L 8.21875 -13.453125 L 4.8125 -5.734375 Z M 11.609375 -5.734375 "/></g></g></g><g fill="#fbfaf9" fill-opacity="1"><g transform="translate(319.810101, 183.946834)"><g><path d="M 2.359375 -15.75 L 9 -15.75 C 10.664062 -15.75 12.144531 -15.414062 13.4375 -14.75 C 14.726562 -14.09375 15.726562 -13.164062 16.4375 -11.96875 C 17.144531 -10.78125 17.5 -9.414062 17.5 -7.875 C 17.5 -6.332031 17.144531 -4.960938 16.4375 -3.765625 C 15.726562 -2.578125 14.726562 -1.648438 13.4375 -0.984375 C 12.144531 -0.328125 10.664062 0 9 0 L 2.359375 0 Z M 8.859375 -1.953125 C 10.140625 -1.953125 11.265625 -2.195312 12.234375 -2.6875 C 13.203125 -3.1875 13.945312 -3.882812 14.46875 -4.78125 C 14.988281 -5.675781 15.25 -6.707031 15.25 -7.875 C 15.25 -9.039062 14.988281 -10.070312 14.46875 -10.96875 C 13.945312 -11.863281 13.203125 -12.554688 12.234375 -13.046875 C 11.265625 -13.546875 10.140625 -13.796875 8.859375 -13.796875 L 4.609375 -13.796875 L 4.609375 -1.953125 Z M 8.859375 -1.953125 "/></g></g></g><g fill="#fbfaf9" fill-opacity="1"><g transform="translate(356.406061, 183.946834)"><g><path d="M 8.390625 -5.4375 L 8.390625 0 L 6.171875 0 L 6.171875 -5.484375 L -0.09375 -15.75 L 2.3125 -15.75 L 7.359375 -7.453125 L 12.421875 -15.75 L 14.640625 -15.75 Z M 8.390625 -5.4375 "/></g></g></g></svg>